<svg xmlns="http://www.w3.org/2000/svg" width="977.001" height="987.76" viewBox="0 0 977.001 987.76"><defs><style>.a{fill:#00a5b1;fill-rule:evenodd;}</style></defs><g transform="translate(0.001 0)"><path class="a" d="M483.592,1141.578Q377.224,1035,270.842,928.428q-173-173.09-346.17-346.009c-4.642-4.631-6.613-8.735-5.664-15.843,11.883-89.131,23.2-178.337,34.9-267.494.9-6.837-1.22-11.255-5.967-15.97q-64.863-64.44-129.315-129.3H-211.5c2.081,2.412,4.022,4.967,6.267,7.213q68.388,68.456,136.95,136.735c5.619,5.569,7.437,10.54,6.31,18.694C-69.244,368.949-75.7,421.55-82.46,474.108Q-88.047,517.563-93.749,561l-3.734,1.3c-2.567-5.782-7.921-11.9-7.274-17.3q12.828-107.185,27.378-214.161c.988-7.334-.626-11.857-5.658-16.861q-75.874-75.415-151.338-151.241c-2.694-2.7-4.846-5.939-7.252-8.929h-32.28c1.414,1.605,2.748,3.288,4.259,4.8q85.173,85.206,170.517,170.252c5.408,5.369,7.274,10.321,6.239,17.842-4.982,36.2-9.376,72.477-14.052,108.716-3.512,27.214-7.138,54.415-10.827,82.488-9.152-5.163-12.372-10.689-10.876-21.135,7.355-51.415,13.532-103,20.362-154.5.977-7.36-.781-12.531-6.252-17.958q-91.232-90.561-181.914-181.675c-2.737-2.737-5.066-5.879-7.584-8.834h-30.128c3.041,3.79,5.759,7.9,9.172,11.322q97.269,97.385,194.785,194.528c5.262,5.236,7.7,10.14,6.576,17.834-3.973,27.285-7.19,54.68-10.773,82.023-2.346,17.9-4.825,35.789-7.248,53.683l-3.945,1.033c-2.492-5.617-7.616-11.513-7.052-16.8,3.719-34.888,8.431-69.677,13.394-104.414,1.022-7.151-.433-11.84-5.571-16.94q-75.561-74.992-150.643-150.464c-23.764-23.827-47.324-47.86-70.975-71.8H-396.57c2.95,3.486,5.671,7.2,8.886,10.424Q-274.456,277.583-161.029,390.73c5.259,5.238,7.584,9.83,6.254,17.689-3.224,19.049-4.98,38.342-7.452,57.52-1.016,7.861-2.352,15.682-3.62,24.01-10.321-5.488-12.191-12.482-10.409-22.232a431.628,431.628,0,0,0,5.683-45.816c.331-4.517-1.67-10.54-4.784-13.764-21.907-22.682-44.4-44.8-66.677-67.123q-93.418-93.589-186.816-187.2h-30.128c2.561,2.931,4.96,6.021,7.7,8.767q129.568,129.677,259.146,259.34c2.679,2.684,6.671,6.172,6.559,9.155-.435,11.535-2.29,23.013-4,37.9-21.52-21.853-40.451-41.329-59.655-60.531q-122.027-122-244.188-243.867v30.128c3.232,2.684,6.708,5.124,9.665,8.081q465.439,465.257,930.759,930.625c2.434,2.438,4.313,5.434,6.45,8.167Z" transform="translate(493.409 -153.818)"/><path class="a" d="M452.488,1104.714c-24.085-24.481-48-49.132-72.283-73.415Q-39.428,611.621-459.18,192.061c-2.245-2.245-4.812-4.168-7.229-6.243v27.976q103.121,102.882,206.227,205.775Q79.327,758.938,418.75,1098.4c2.014,2.014,3.848,4.209,5.763,6.318Z" transform="translate(466.408 -116.955)"/><path class="a" d="M-413.409,238.818v30.128c2.752,2.1,5.787,3.921,8.214,6.346Q-25,655.308,355.06,1035.456c2.41,2.408,4.179,5.455,6.245,8.2h30.128c-2.156-2.374-4.218-4.844-6.484-7.11Q69.979,721.576-245.029,406.638-329.1,322.608-413.409,238.818Z" transform="translate(413.409 -55.9)"/><path class="a" d="M421.385,1073.611c-2.1-2.744-3.91-5.77-6.329-8.19Q-8.416,641.9-432,218.523c-2.186-2.184-4.926-3.815-7.4-5.7v27.976c2.681,2.3,5.531,4.433,8.02,6.923Q-55.442,623.533,320.42,999.434c24.526,24.531,48.669,49.442,72.989,74.177Z" transform="translate(439.409 -85.851)"/><path class="a" d="M-386.409,293.794q60.631,60.27,121.245,120.556,295.605,295.476,591.1,591.057c2.262,2.262,4.28,4.762,6.413,7.149H360.33c-2-2.447-3.8-5.094-6.023-7.317Q-12.366,638.541-379.129,271.93c-2.232-2.232-4.844-4.082-7.28-6.112Z" transform="translate(386.409 -24.796)"/><path class="a" d="M329.226,981.452c-2.285-3.017-4.252-6.355-6.9-9.006Q-14.365,635.685-351.193,299.063c-2.412-2.408-5.462-4.177-8.216-6.245v27.976c4.48,4.031,9.159,7.863,13.415,12.118q319.918,319.8,639.742,639.7c2.724,2.725,5.01,5.884,7.5,8.843Z" transform="translate(359.408 6.307)"/><path class="a" d="M-64.454,758.606c-13.727-14.072-27.315-28.286-41.206-42.194q-99.147-99.277-198.462-198.378c-4.657-4.648-8.074-8.593-7.078-16.521.59-4.666-5.234-10.138-8.171-15.249l-2.765,1.356c-1.545,11.214-3.738,22.4-4.265,33.668-.179,3.723,3.215,8.369,6.2,11.367q108.9,109.289,218.1,218.278c2.535,2.531,5.014,5.115,7.519,7.674Z" transform="translate(682.073 229.153)"/><path class="a" d="M-67.6,771.144c-2.236-2.705-4.269-5.612-6.74-8.087Q-174.944,662.318-275.793,561.81c-6.129-6.084-7.706-11.774-6.372-19.887,2.5-15.176,3.329-30.648,6.29-45.712,1.956-9.942-1.973-15.432-10.82-20.831-3.047,23.194-4.539,45.981-9.391,68.028-4.317,19.62,2.165,31.948,16.062,45.461C-220.961,646.288-163.156,705-104.917,763.264c2.514,2.511,4.8,5.251,7.192,7.88Z" transform="translate(622.809 216.615)"/><path class="a" d="M-70.706,796.661Q-144.717,722.508-218.84,648.47c-5.408-5.376-6.845-10.291-5.8-17.9,7.175-52.121,13.486-104.358,20.646-156.483,1.326-9.662-1.75-15.643-10.9-20.853-2.886,21.759-5.726,42.842-8.468,63.937-5.537,42.586-10.831,85.2-16.7,127.744-1.125,8.171.316,13.882,6.422,19.9,41.578,41,82.752,82.4,124,123.722a101.979,101.979,0,0,1,6.647,8.128Z" transform="translate(503.254 191.098)"/><path class="a" d="M-69.327,783.932c-2.109-2.74-3.951-5.752-6.374-8.18q-85.064-85.2-170.345-170.185c-5.212-5.184-7.713-9.815-6.579-17.659,4.868-33.657,8.52-67.488,13.454-101.135,1.442-9.813-.734-16.6-10.573-22.495-2.24,16.254-4.508,31.858-6.521,47.5-3.934,30.539-7.351,61.151-11.849,91.606-1.1,7.439.85,11.866,5.813,16.8q78.127,77.694,155.907,155.741c2.488,2.492,4.633,5.328,6.938,8.005Z" transform="translate(562.131 203.827)"/><path class="a" d="M-73.131,809.3c-36.612-36.87-72.847-74.125-110.074-110.364-10.287-10.013-13.426-19.26-11.367-33.653,9.589-67.028,17.623-134.277,26.571-201.4,1.293-9.7-.682-16.753-10.876-21.63-2.406,18.4-4.784,36.4-7.106,54.413-8.343,64.671-16.547,129.36-25.174,193.992-.962,7.216.8,11.915,5.886,16.934,31.4,30.969,62.509,62.242,93.633,93.495,2.4,2.412,4.166,5.457,6.228,8.21Z" transform="translate(443.272 178.458)"/></g></svg>