<svg xmlns="http://www.w3.org/2000/svg" width="21" height="20" viewBox="0 0 21 20"><defs><style>.a{fill:#009ad9;}.b{fill:#fff;}</style></defs><g transform="translate(0 0.4)"><ellipse class="a" cx="10.5" cy="10" rx="10.5" ry="10" transform="translate(0 -0.4)"/><path class="b" d="M6.233,8.229a7.252,7.252,0,0,0,3.155,3.155l1.053-1.053a.476.476,0,0,1,.488-.115,5.461,5.461,0,0,0,1.709.273.48.48,0,0,1,.479.479v1.671a.48.48,0,0,1-.479.479A8.137,8.137,0,0,1,4.5,4.979.48.48,0,0,1,4.979,4.5H6.654a.48.48,0,0,1,.479.479,5.438,5.438,0,0,0,.273,1.709.48.48,0,0,1-.12.488L6.233,8.229Z" transform="translate(1.817 1.446)"/></g></svg>