<svg xmlns="http://www.w3.org/2000/svg" width="68.409" height="42.93" viewBox="0 0 68.409 42.93"><defs><style>.a{fill:#fff;fill-rule:evenodd;}</style></defs><path class="a" d="M-1751.793,166.535c.53-.055,1.033-.1,1.532-.161,1.012-.122,1.695.168,1.82.783.134.655-.375,1.072-1.4,1.18-.675.071-1.346.167-2.169.272,0,.735.033,1.471-.005,2.2q-.271,5.231-.575,10.46c-.054.953-.685,1.27-1.912.948A49.781,49.781,0,0,1-1765.6,178.1a11.792,11.792,0,0,1-3.359-2.536,3.986,3.986,0,0,1-.97-2.076c-.1-.677.413-1.183,1.22-1.231.872-.053,1.437.366,1.489,1.082.081,1.121,1,1.9,2.046,2.612a21.243,21.243,0,0,0,4.679,2.3c1.613.588,3.278,1.1,4.921,1.642.084.028.177.039.316.069.031-.327.071-.627.085-.928.209-4.5.54-9.008.575-13.514.022-2.841-.4-5.684-.639-8.525-.009-.108-.228-.263-.39-.3-1.737-.4-3.5-.738-5.22-1.176a23.317,23.317,0,0,1-5.365-2.094c-.149-.081-.3-.156-.559-.287.057.508.108.941.154,1.375q.427,4.006.849,8.013a4.712,4.712,0,0,1,.012.712,1.25,1.25,0,0,1-1.314,1.072,1.308,1.308,0,0,1-1.4-1.06c-.12-1.547-.235-3.093-.353-4.64a.645.645,0,0,0-.177-.4c-.158.143-.314.287-.474.43a5.032,5.032,0,0,0-1.754,2.587,3.708,3.708,0,0,0,1.346,3.522,19.41,19.41,0,0,0,7.345,3.916c.27.093.544.179.981.322-.477-.569-.876-1.029-1.254-1.5a.8.8,0,0,1,.044-1.176,1.607,1.607,0,0,1,2.151.035q1.978,2.25,3.872,4.539c.525.636.169,1.248-.806,1.491q-3.153.787-6.317,1.549a1.458,1.458,0,0,1-1.769-.544c-.276-.55.048-1.058.9-1.292,1.083-.3,2.188-.555,3.42-.864-.456-.147-.8-.264-1.156-.372a26.518,26.518,0,0,1-8.663-4.085,6.711,6.711,0,0,1-2.84-4.281,5.337,5.337,0,0,1,1.957-4.679c.729-.688,1.657-1.261,2.468-1.905a.693.693,0,0,0,.293-.521c-.245-2.141-.551-4.278-.779-6.42a3.956,3.956,0,0,1,1.66-3.334,18.481,18.481,0,0,1,6.7-3.385,58.375,58.375,0,0,1,11.572-2.284,97.453,97.453,0,0,1,18.889-.149,58.12,58.12,0,0,1,13.974,2.756,18.242,18.242,0,0,1,5.422,2.8,4.317,4.317,0,0,1,1.9,4.18c-.3,2.01-.465,4.03-.7,6.045-.028.234.039.368.322.51,2.326,1.174,3.974,2.711,4.546,4.778a4.637,4.637,0,0,1-1.068,4.223,14.122,14.122,0,0,1-5.787,4.061c-1.972.828-4.054,1.516-6.077,2.262l1.352.354c.5.131,1.017.237,1.495.4.617.215.875.769.619,1.2a1.35,1.35,0,0,1-1.6.585c-2.164-.52-4.342-1.016-6.471-1.6-1.039-.287-1.31-.9-.732-1.585q1.823-2.148,3.657-4.291a1.636,1.636,0,0,1,1.952-.4c.7.339.83.884.345,1.457a18.02,18.02,0,0,0-1.443,1.871c.971-.3,1.957-.582,2.91-.913a20.922,20.922,0,0,0,6.117-3.087,6.126,6.126,0,0,0,1.8-2.066,3.416,3.416,0,0,0-.832-4.092c-.372-.4-.818-.757-1.23-1.134l-.139.039c-.047.394-.108.787-.137,1.182q-.136,1.9-.251,3.806c-.037.614-.558,1.018-1.34,1.022s-1.376-.406-1.345-1.014c.088-1.7.2-3.4.35-5.1.13-1.448.334-2.892.5-4.338.02-.174.023-.35.038-.614-.478.251-.851.459-1.24.649a36.581,36.581,0,0,1-9.867,2.947c-.472.081-.635.231-.688.572-.388,2.508-.872,5.009-1.177,7.522a16.754,16.754,0,0,0,.091,3.553c.344,3.717.738,7.431,1.116,11.146.018.179.069.356.121.619.863-.221,1.7-.414,2.518-.649a20.81,20.81,0,0,0,7.072-3.354,11.618,11.618,0,0,0,2.625-2.867,2.984,2.984,0,0,1,.767-.768,1.716,1.716,0,0,1,1.733-.019.7.7,0,0,1,.256,1.128,14.031,14.031,0,0,1-3.951,4.311,22.809,22.809,0,0,1-6.838,3.19c-1.6.462-3.257.833-4.908,1.2-1.064.236-1.759-.127-1.857-.943q-.463-3.878-.876-7.759c-.171-1.585-.317-3.172-.452-4.759-.021-.252-.159-.339-.468-.367-.583-.053-1.164-.116-1.744-.182-.844-.1-1.412-.578-1.314-1.106.114-.612.8-.958,1.7-.865.522.053,1.046.1,1.668.158a9.4,9.4,0,0,1,.007-1.2c.283-2.123.573-4.246.9-6.366.152-1,.371-1.989.582-2.98.129-.6.491-.8,1.286-.96,2.509-.495,5.037-.956,7.5-1.557a10.171,10.171,0,0,0,4.918-2.606c1.5-1.526,1.406-2.9-.4-4.251a17.8,17.8,0,0,0-5.56-2.562,62.854,62.854,0,0,0-13.09-2.273,91.768,91.768,0,0,0-10.313-.239,80.568,80.568,0,0,0-12.119,1.243,35.782,35.782,0,0,0-8.174,2.36,15.839,15.839,0,0,0-2.8,1.628c-1.709,1.246-1.706,2.724-.119,4.069a13.285,13.285,0,0,0,3.614,2.01,40.67,40.67,0,0,0,8.643,2.177c.914.152,1.283.431,1.334,1.105q.389,5.12.759,10.241C-1751.819,166.357-1751.807,166.424-1751.793,166.535Z" transform="translate(1774.021 -139.419)"/><path class="a" d="M-1621.762,195.3a10.546,10.546,0,0,1-10.5-10.1,10.653,10.653,0,0,1,9.8-10.992,10.6,10.6,0,0,1,11.323,9.943A10.54,10.54,0,0,1-1621.762,195.3Zm-.1-2.46a8.138,8.138,0,0,0,8.259-7.747,8.141,8.141,0,0,0-7.9-8.441,8.132,8.132,0,0,0-8.281,7.74A8.089,8.089,0,0,0-1621.857,192.845Z" transform="translate(1655.948 -170.383)"/><path class="a" d="M-1591.179,324.15c-.854,0-1.708.007-2.562,0-.89-.01-1.4-.365-1.414-.969-.016-.574.517-1.048,1.349-1.056,1.726-.017,3.454.012,5.18.053a1.257,1.257,0,0,1,1.2,1.163c-.017.466-.372.768-1.019.785-.91.024-1.822.006-2.733.006Z" transform="translate(1625.032 -295.928)"/><path class="a" d="M-1590.5,211.757c0-1.265,0-2.529,0-3.794.006-1.189.853-1.665,1.883-1.068q3.3,1.911,6.6,3.818a1.127,1.127,0,0,1,.015,2.112q-3.357,1.951-6.722,3.89a1.129,1.129,0,0,1-1.782-1.022c-.01-1.312,0-2.624,0-3.936Zm2.439,1.87,3.224-1.853-3.224-1.861Z" transform="translate(1621.161 -197.41)"/></svg>