<svg xmlns="http://www.w3.org/2000/svg" width="37.264" height="35.884" viewBox="0 0 37.264 35.884"><defs><style>.a{opacity:0.14;}.b{fill:#1da1f2;}</style></defs><g transform="translate(-373.404 -5)"><rect class="a" width="37.264" height="35.884" rx="3" transform="translate(373.404 5)"/><path class="b" d="M230.5,82.466a8.15,8.15,0,0,1-2.338.62,4.076,4.076,0,0,0,1.792-2.251,8.117,8.117,0,0,1-2.586.986,4.074,4.074,0,0,0-7.044,2.784,4.129,4.129,0,0,0,.106.93,11.556,11.556,0,0,1-8.39-4.254,4.08,4.08,0,0,0,1.24,5.438,4.058,4.058,0,0,1-1.861-.515v.056a4.068,4.068,0,0,0,3.268,3.987,4.158,4.158,0,0,1-1.072.149,4.413,4.413,0,0,1-.769-.075,4.08,4.08,0,0,0,3.8,2.828,8.151,8.151,0,0,1-5.053,1.743,8.529,8.529,0,0,1-.973-.056,11.543,11.543,0,0,0,17.826-9.723v-.527A8.414,8.414,0,0,0,230.5,82.466Z" transform="translate(171.066 -65.875)"/></g></svg>