<svg xmlns="http://www.w3.org/2000/svg" width="49" height="39.387" viewBox="0 0 49 39.387"><defs><style>.a{fill:#fff;fill-rule:evenodd;}</style></defs><path class="a" d="M-862.772-19.411q10.862,0,21.723,0a2.511,2.511,0,0,1,2.5,1.4,2.756,2.756,0,0,1,.271,1.155q.023,11.765.008,23.53a2.5,2.5,0,0,1-2.522,2.573c-.093.006-.187,0-.281,0q-21.683,0-43.366,0a2.681,2.681,0,0,1-2.3-.995,2.716,2.716,0,0,1-.528-1.729q.009-5.862,0-11.725,0-5.722,0-11.444A2.536,2.536,0,0,1-884.5-19.41Q-873.634-19.413-862.772-19.411Zm.011,26.634h21.644c.737,0,.836-.1.836-.832q0-11.464,0-22.929c0-.748-.106-.853-.86-.853H-884.39c-.75,0-.856.106-.856.857q0,11.444,0,22.889c0,.785.084.868.88.868Zm-13.606,7.761c3.2,0,6.4,0,9.6.007a.52.52,0,0,0,.6-.416A4,4,0,0,1-862.457,12a3.975,3.975,0,0,1,3.713,2.582.527.527,0,0,0,.6.413q9.255-.014,18.51,0a2.069,2.069,0,0,1,.914.2.839.839,0,0,1,.418.961.9.9,0,0,1-.751.787,3.607,3.607,0,0,1-.636.056q-9.174,0-18.349-.006a.666.666,0,0,0-.746.5,3.776,3.776,0,0,1-3.412,2.467,3.837,3.837,0,0,1-3.659-1.882,1.456,1.456,0,0,1-.26-.494c-.091-.523-.4-.594-.877-.593q-9.435.025-18.871.009a3.071,3.071,0,0,1-.636-.06.984.984,0,0,1-.763-.956,1,1,0,0,1,.814-.961,3.213,3.213,0,0,1,.559-.039Q-881.126,14.982-876.368,14.984Zm13.892-.964A1.98,1.98,0,0,0-864.428,16a1.985,1.985,0,0,0,1.97,1.965,1.99,1.99,0,0,0,1.977-2A1.986,1.986,0,0,0-862.476,14.02ZM-868.54-5.091c0-2.167-.007-4.335.008-6.5a1.749,1.749,0,0,1,.194-.838,1.016,1.016,0,0,1,1.546-.146q1.752,1.241,3.5,2.488l5.624,4c.918.653.923,1.354.01,2q-4.543,3.235-9.086,6.47a1.093,1.093,0,0,1-1.223.213,1.134,1.134,0,0,1-.575-1.146C-868.536-.729-868.54-2.91-868.54-5.091ZM-866.5-.276l6.755-4.808-6.755-4.8Z" transform="translate(887.265 19.414)"/></svg>