<svg xmlns="http://www.w3.org/2000/svg" width="333" height="68.261" viewBox="0 0 333 68.261">
  <g id="Group_786" data-name="Group 786" transform="translate(-352.921 -336.817)">
    <path id="Path_32" data-name="Path 32" d="M352.921,364.243l10.4-10.4,5.937,5.937-2.966,2.977-2.971-2.977-4.456,4.461,4.456,4.456,10.4-10.4,2.969,2.973-13.368,13.367Z" transform="translate(0 6.781)" fill="#fa8f3f"/>
    <path id="Path_33" data-name="Path 33" d="M408.27,364.253l-10.393,10.4-5.946-5.942,2.969-2.966,2.977,2.966,4.453-4.454-4.453-4.459-10.4,10.4-2.976-2.974,13.377-13.367Z" transform="translate(10.015 6.785)" fill="#fa8f3f"/>
    <path id="Path_34" data-name="Path 34" d="M364.2,352.967l10.4-10.4,5.947,5.947-2.975,2.971-2.972-2.971-4.453,4.454,10.4,10.394-2.975,2.974Z" transform="translate(3.577 1.823)" fill="#fa8f3f"/>
    <path id="Path_35" data-name="Path 35" d="M395.2,376.235l-10.4,10.4-5.943-5.944,2.97-2.97,2.973,2.97,4.458-4.456-10.4-10.4,2.97-2.97Z" transform="translate(8.227 11.015)" fill="#fa8f3f"/>
    <path id="Path_36" data-name="Path 36" d="M373.227,355.936l2.969,2.973,2.966-2.973,10.4,10.4,2.964-2.977-10.387-10.39,4.451-4.456,4.458,4.456-2.976,2.967,2.976,2.973,5.939-5.94-10.4-10.405Z" transform="translate(6.439 1.822)" fill="#fa8f3f"/>
    <path id="Path_37" data-name="Path 37" d="M382.024,373.269l-10.395-10.4-2.969,2.967,10.4,10.4-4.461,4.457-4.451-4.457,2.968-2.965-2.968-2.971-5.946,5.936,10.4,10.4,13.37-13.365L385,370.3Z" transform="translate(3.577 11.015)" fill="#fa8f3f"/>
    <rect id="Rectangle_44" data-name="Rectangle 44" width="12.602" height="4.199" transform="translate(379.664 373.993) rotate(-44.98)" fill="#fa8f3f"/>
    <rect id="Rectangle_45" data-name="Rectangle 45" width="6.303" height="6.303" transform="matrix(0.707, -0.707, 0.707, 0.707, 381.146, 341.418)" fill="#fa8f3f"/>
    <rect id="Rectangle_46" data-name="Rectangle 46" width="6.303" height="6.303" transform="translate(381.145 400.623) rotate(-45.02)" fill="#fa8f3f"/>
    <path id="Path_38" data-name="Path 38" d="M437.871,350.982c1.326,0,1.785-.144,2.007-.37.429-.418.6-1.1.6-4.423s-.175-4.1-.6-4.514c-.223-.227-.681-.37-2.007-.37H429.15v9.677Zm7.635,13.732H449.2v4.462h-4.663c-1.927,0-2.616-.324-3.172-.872-.689-.694-1.055-1.938-1.245-8.294-.087-2.58-.408-3.415-1.013-4.009-.738-.734-1.516-.882-3.133-.882H429.15V364.8h4.428v4.376H419.895V364.8h4.329V341.3h-4.329v-4.373h19.577c2.123,0,3.544.369,4.518,1.33,1.247,1.25,1.751,2.815,1.751,7.653,0,5.669-1.337,6.812-5.02,7.322v.086c3.411.657,4.368,1.945,4.557,6.641.047,1.425.136,3.319.229,4.751" transform="translate(25.322 0.037)" fill="#fa8f3f"/>
    <path id="Path_39" data-name="Path 39" d="M444.912,341.306v-4.374h25.239v9.718h-4.836v-5.344H454.162v9.031h8.663v4.23h-8.663V364.8h11.522v-6.028h4.83v10.4h-25.6V364.8h4.318v-23.5Z" transform="translate(34.71 0.036)" fill="#fa8f3f"/>
    <path id="Path_40" data-name="Path 40" d="M466.879,341.3v-4.373H480.3V341.3h-4.372l6.727,23.1h.681l6.777-23.1h-4.371v-4.373h12.9V341.3h-3.542l-8.3,26.449c-.417,1.292-.83,1.573-2.211,1.573h-3.634c-1.388,0-1.812-.281-2.218-1.573L470.438,341.3Z" transform="translate(43.146 0.037)" fill="#fa8f3f"/>
    <path id="Path_41" data-name="Path 41" d="M499.737,354.933h8.748l-4.009-13.6h-.7Zm-11.346,14.28V364.83H491.9l8.337-26.451c.415-1.293.824-1.562,2.214-1.562h3.867c1.384,0,1.8.269,2.208,1.562l8.348,26.451h3.5v4.383H507.011V364.83h4.422l-1.7-5.748c-2.815,0-8.249.038-11.206.038l-1.7,5.71h4.424v4.383Z" transform="translate(51.297 0)" fill="#fa8f3f"/>
    <path id="Path_42" data-name="Path 42" d="M435.907,368.7v-2.051h9.543V368.7h-3.583v13.443c0,6.025-.516,7.984-1.774,9.249-.843.81-2.078,1.141-4.635,1.141h-5.723c-2.55,0-3.7-.331-4.514-1.141-1.259-1.264-1.766-3.183-1.766-9.249V368.7h-3.56v-2.051h9.533V368.7h-3.917v13.59c0,5.4.507,6.637,1.283,7.41.489.485,1.159.78,3.367.78h5.034c2.221,0,2.844-.3,3.33-.78.806-.807,1.283-2.007,1.283-7.41V368.7Z" transform="translate(25.27 12.216)" fill="#393c44"/>
    <path id="Path_43" data-name="Path 43" d="M460.5,368.7h-3.957v-2.051h9.4V368.7h-3.365v23.864h-2.405a1.316,1.316,0,0,1-1.441-.88l-11.867-23.081h-.37v22.308h3.983v1.621h-9.5v-1.621h3.473V368.7h-3.473v-2.051h6.193a1.289,1.289,0,0,1,1.44.88l11.757,22.826h.137Z" transform="translate(33.213 12.216)" fill="#393c44"/>
    <path id="Path_44" data-name="Path 44" d="M471.62,390.485v2.052h-9.655v-2.052h3.814V368.7h-3.814v-2.051h9.655V368.7h-3.762v21.78Z" transform="translate(40.807 12.216)" fill="#393c44"/>
    <path id="Path_45" data-name="Path 45" d="M471.207,368.7v-2.051h9.215V368.7h-3.565l6.748,21.78h.7L491.1,368.7h-3.43v-2.051h9.068V368.7H493.4l-7.476,22.984c-.328.927-.477,1-1.474,1h-1c-.958,0-1.224-.219-1.478-1L474.535,368.7Z" transform="translate(44.63 12.216)" fill="#393c44"/>
    <path id="Path_46" data-name="Path 46" d="M510.162,390.485H498.094V380.143h9.051v-2.057h-9.051V368.7h12.068v3.327h2.045v-5.378h-19.7V368.7h3.5v21.78h-3.5v2.052h19.7v-5.488h-2.045Z" transform="translate(52.504 12.216)" fill="#393c44"/>
    <path id="Path_47" data-name="Path 47" d="M524.193,378.811c1.515,0,2.247-.207,2.761-.726s1.164-1.259,1.164-4.412c0-3.174-.551-3.741-1.11-4.3-.519-.518-1.333-.665-2.736-.665h-8.153v10.106Zm6.238,11.674h3.7v2.052h-3.962a1.774,1.774,0,0,1-1.366-.371c-.408-.411-.554-.956-.706-6.241-.107-2.965-.446-3.813-.993-4.372-.6-.634-1.408-.686-3-.686h-7.983v9.618h3.951v2.052h-9.54v-2.052h3.541V368.7H510.53v-2.051H524.8c1.9,0,3.007.257,3.817,1.105,1.005,1,1.591,2.184,1.591,5.881,0,4.445-1.257,5.665-3.554,6.251l.555.079c2.4.481,2.741,1.475,2.923,5.915a45.965,45.965,0,0,0,.3,4.6" transform="translate(59.405 12.216)" fill="#393c44"/>
    <path id="Path_48" data-name="Path 48" d="M548.1,391.428c-.666.707-1.7,1.109-3.622,1.109h-8.32c-1.847,0-2.841-.292-3.622-1.027-.921-.967-1.329-1.815-1.329-6.518h2.04c.046,3.993.307,4.227.861,4.782a3.074,3.074,0,0,0,2.439.711h7.743a3.2,3.2,0,0,0,2.517-.739c.626-.6.643-1.311.643-4.044,0-2.811.1-2.977-.562-3.643-.486-.479-1.044-.566-2.809-.827l-7.452-.852a5.712,5.712,0,0,1-3.865-1.631c-.822-.823-1.188-2-1.188-5.3,0-3.029.414-4.618,1.469-5.693.715-.7,1.715-1.105,3.6-1.105h7.509c1.847,0,2.853.3,3.621,1.037,1,1.033,1.3,2.071,1.321,6.285h-2.065c-.046-3.517-.254-3.975-.851-4.569a3.131,3.131,0,0,0-2.439-.7h-6.616a3.191,3.191,0,0,0-2.518.736c-.673.668-.892,1.531-.892,3.979,0,2.7.219,3.365.81,3.962.478.471,1.121.578,2.819.8l7.218.743c2.1.217,3.174.59,3.855,1.257.838.852,1.212,2.148,1.212,5.516,0,3.328-.478,4.688-1.524,5.726" transform="translate(67.014 12.216)" fill="#393c44"/>
    <path id="Path_49" data-name="Path 49" d="M580.024,368.7h-2.982v-2.051h9.209V368.7h-3.731l6.69,11.145h.188l6.772-11.145h-3.712v-2.051h8.956V368.7h-3.086l-8.066,12.88v8.9h3.794v2.052h-9.69v-2.052h3.849v-8.853Z" transform="translate(84.51 12.216)" fill="#393c44"/>
    <path id="Path_50" data-name="Path 50" d="M558.477,366.654v6.832h2.047v-5.213H568.1v22.212h-3.825v2.052h9.686v-2.052h-3.808V368.272h7.57v5.213h2.05v-6.832Z" transform="translate(78.622 12.216)" fill="#393c44"/>
    <path id="Path_51" data-name="Path 51" d="M558.027,390.485v2.052h-9.645v-2.052h3.793V368.7h-3.793v-2.051h9.645V368.7H554.26v21.78Z" transform="translate(75.421 12.216)" fill="#393c44"/>
  </g>
</svg>
